<?xml version="1.0" encoding="UTF-8" standalone="no"?><svg xmlns:svg="http://www.w3.org/2000/svg" xmlns="http://www.w3.org/2000/svg" xmlns:xlink="http://www.w3.org/1999/xlink" version="1.0" width="64px" height="64px" viewBox="0 0 128 128" xml:space="preserve"><g><path d="M85.86 3.95A64 64 0 1 1 3.83 42.2 64 64 0 0 1 85.86 3.95zm-4.1 11.28A52 52 0 1 1 15.1 46.3a52 52 0 0 1 66.65-31.07zm36.32 81.38l-3.76-1.3-.6-13 8.8-9.54 3.76 1.37-8.8 9.57zm-38.7 28.7l-1.7-3.6 8.77-9.6 13-.54 1.68 3.63-13 .53zM111.96 42l-.54-13 3.63-1.68.54 13 9.6 8.75-3.7 1.7zm-80.2 76.22l1.37-3.77 13-.6 9.55 8.8-1.36 3.77-9.57-8.8zM72.63 5.87L74 2.1l9.57 8.8 12.98-.6-1.37 3.76-12.98.6zM12.73 88.2l-9.6-8.75 3.62-1.7 9.6 8.78.54 12.98-3.7 1.7zm16.14-71.24l-1.7-3.62 13-.54 8.76-9.6 1.7 3.6-8.77 9.6zM2.02 54.38l8.8-9.57-.6-12.9L14 33.2l.58 12.97-8.8 9.57z" fill="#547bc4" fill-rule="evenodd"/><animateTransform attributeName="transform" type="rotate" from="0 64 64" to="90 64 64" dur="990ms" repeatCount="indefinite"></animateTransform></g><g><path d="M89.6 94.68a40 40 0 1 1 4.94-56.35 40 40 0 0 1-4.93 56.35zM31.93 75.16l3.88 12.4 11.6 6 3.08-2.6L38.88 85 35 72.6zm20.8-43.25l-12.4 3.9-5.97 11.6 2.57 3.07L42.9 38.9 55.3 35zM91 77.5l-6 11.52-12.4 3.9 2.57 3.05 12.4-3.88 5.98-11.6zM77.5 36.9l11.54 6 3.88 12.4L96 52.73l-3.9-12.4-11.54-6z" fill="#547bc4" fill-rule="evenodd"/><animateTransform attributeName="transform" type="rotate" from="0 64 64" to="-90 64 64" dur="990ms" repeatCount="indefinite"></animateTransform></g></svg>